<svg id="logo" xmlns="http://www.w3.org/2000/svg" width="512" height="220" viewBox="0 0 512 220">
  <metadata><?xpacket begin="﻿" id="W5M0MpCehiHzreSzNTczkc9d"?>
<x:xmpmeta xmlns:x="adobe:ns:meta/" x:xmptk="Adobe XMP Core 5.6-c142 79.160924, 2017/07/13-01:06:39        ">
   <rdf:RDF xmlns:rdf="http://www.w3.org/1999/02/22-rdf-syntax-ns#">
      <rdf:Description rdf:about=""/>
   </rdf:RDF>
</x:xmpmeta>
                                                                                                    
                                                                                                    
                                                                                                    
                                                                                                    
                                                                                                    
                                                                                                    
                                                                                                    
                                                                                                    
                                                                                                    
                                                                                                    
                                                                                                    
                                                                                                    
                                                                                                    
                                                                                                    
                                                                                                    
                                                                                                    
                                                                                                    
                                                                                                    
                                                                                                    
                                                                                                    
                           
<?xpacket end="w"?></metadata>
<defs>
    <style>
      .cls-1 {
        fill: #fff;
        fill-rule: evenodd;
      }
    </style>
  </defs>
  <path id="provide" class="cls-1" d="M26.488,187.059Q24.194,185,19.089,185H9.877v27.627H13.65V202.272h5.438q5.068,0,7.381-2.137t2.312-6.483Q28.782,189.122,26.488,187.059Zm-2.96,10.848a6.682,6.682,0,0,1-4.44,1.2H13.65v-10.83h5.438a6.606,6.606,0,0,1,4.44,1.216q1.368,1.215,1.369,4.162Q24.9,196.711,23.528,197.907ZM38.845,201.5a8.253,8.253,0,0,1,1.776-5.544,5.6,5.6,0,0,1,4.44-2.081,7.01,7.01,0,0,1,2.183.3l0.222-3.536a7.431,7.431,0,0,0-2.183-.3,6.491,6.491,0,0,0-3.977,1.308,8.873,8.873,0,0,0-2.793,3.7H38.438l-0.3-4.715-2.812.184v21.807h3.515V201.5Zm22.6-11.2q-4.995,0-7.307,2.689t-2.312,8.73q0,6.042,2.294,8.712t7.325,2.671q4.995,0,7.233-2.653t2.238-8.73q0-6.078-2.238-8.748T61.449,190.3Zm0,2.984q3.219,0,4.551,1.879t1.332,6.556q0,4.678-1.332,6.557t-4.551,1.879q-3.293,0-4.643-1.879t-1.35-6.557q0-4.677,1.35-6.556t4.643-1.879h0Zm25.38,13.445-0.925,2.8H85.793l-0.962-2.8-5.7-16.06H75.249L83.8,212.623h4.07l8.546-21.954H92.527ZM106.992,190.6l-3.515.184v21.844h3.515V190.6Zm-4-5.489a1.749,1.749,0,0,0,.537,1.455,2.777,2.777,0,0,0,1.72.424q2.256,0,2.257-1.879t-2.257-1.878q-2.257,0-2.257,1.878h0Zm29.93-1.768-3.514.221v6.189l0.074,2.947-0.074.036a8.224,8.224,0,0,0-6.216-2.468q-8.51,0-8.509,11.346,0,5.931,2.016,8.693t6.456,2.763q4.4,0,6.512-2.763l0.111,0.037,0.444,2.284h2.7V183.338Zm-5.42,26.006a6.354,6.354,0,0,1-3.385.811q-3.256,0-4.532-1.879t-1.276-6.52q0-4.494,1.313-6.372t4.532-1.879a7.124,7.124,0,0,1,3.145.681,4.914,4.914,0,0,1,2.109,1.824v11.456A5.254,5.254,0,0,1,127.506,209.344Zm29.283,2.1-0.407-2.947a13.562,13.562,0,0,1-5.993,1.4q-3.627,0-5.272-1.75t-1.795-6.023h14.133q0.073-.957.074-1.694,0-5.12-2.294-7.625a8.241,8.241,0,0,0-6.4-2.5q-4.515,0-6.808,2.763t-2.293,7.993q0,6.226,2.423,9.117t7.825,2.892a14.074,14.074,0,0,0,6.807-1.621h0Zm-12.024-16.558a5.1,5.1,0,0,1,4.107-1.565q5.328,0,5.438,6.409H143.248A8.1,8.1,0,0,1,144.765,194.886Zm36.442-11.548-3.515.221v6.189l0.074,2.947-0.074.036a8.224,8.224,0,0,0-6.216-2.468q-8.51,0-8.509,11.346,0,5.931,2.016,8.693t6.456,2.763q4.4,0,6.512-2.763l0.111,0.037,0.444,2.284h2.7V183.338Zm-5.42,26.006a6.361,6.361,0,0,1-3.386.811q-3.255,0-4.532-1.879t-1.276-6.52q0-4.494,1.313-6.372t4.532-1.879a7.124,7.124,0,0,1,3.145.681,4.914,4.914,0,0,1,2.109,1.824v11.456A5.258,5.258,0,0,1,175.787,209.344Zm36.459-19.081a8.313,8.313,0,0,0-6.289,2.468l-0.074-.036,0.037-2.947V183.3l-3.478.221v29.1h2.331l0.555-2.284,0.111-.037a7.774,7.774,0,0,0,6.4,2.726,8,8,0,0,0,6.567-2.726q2.238-2.725,2.239-8.73t-2.165-8.656a7.581,7.581,0,0,0-6.234-2.653h0Zm3.386,18.013a5.132,5.132,0,0,1-4.274,1.842,6.836,6.836,0,0,1-3.311-.755,5.6,5.6,0,0,1-2.127-1.934V196.047a6.139,6.139,0,0,1,5.4-2.616,5.269,5.269,0,0,1,4.366,1.75q1.405,1.751,1.406,6.465Q217.093,206.434,215.632,208.276Zm12.523,6.925-0.333,2.616a8.04,8.04,0,0,0,3.4.7,6.356,6.356,0,0,0,4-1.252,9.541,9.541,0,0,0,2.775-4.2l8.1-22.4h-3.773l-5.069,15.876-0.814,2.836h-0.111l-1.036-2.763-6.289-15.949h-4.07l9.656,21.954-0.111.368a5.173,5.173,0,0,1-1.609,2.173,3.841,3.841,0,0,1-2.238.627,5.648,5.648,0,0,1-2.479-.59h0ZM280.6,200.946a6.541,6.541,0,0,0-2.535-2.358q-1.517-.772-3.311-1.473t-3.311-1.2a6.533,6.533,0,0,1-2.534-1.474,3.164,3.164,0,0,1-1.018-2.376,3.662,3.662,0,0,1,1.369-2.947,6.641,6.641,0,0,1,4.292-1.141,18.181,18.181,0,0,1,6.622,1.326l0.518-3.279a16.8,16.8,0,0,0-7.325-1.473q-4.551,0-6.845,2.136a7.3,7.3,0,0,0-2.293,5.6,6.545,6.545,0,0,0,1.017,3.684,6.467,6.467,0,0,0,2.534,2.3q1.517,0.756,3.312,1.455t3.311,1.234a6.554,6.554,0,0,1,2.534,1.566A3.39,3.39,0,0,1,277.951,205a4.282,4.282,0,0,1-1.479,3.481,6.673,6.673,0,0,1-4.366,1.234,14.268,14.268,0,0,1-7.51-2.1L264,211.039a15.947,15.947,0,0,0,8.139,2.1q4.551,0,7.011-2.228a7.9,7.9,0,0,0,2.46-6.17A6.87,6.87,0,0,0,280.6,200.946Zm24.806-2.873a8.079,8.079,0,0,0-1.924-5.784,7.246,7.246,0,0,0-5.513-2.026,8.163,8.163,0,0,0-6.178,2.432l-0.074-.037,0.037-2.947v-6.373l-3.478.221v29.064h3.478V196.01a5.363,5.363,0,0,1,2.109-1.787,6.647,6.647,0,0,1,3.07-.718q4.995,0,5,4.568v14.55H305.4v-14.55Zm23.455,13.371-0.407-2.947a13.559,13.559,0,0,1-5.993,1.4q-3.627,0-5.272-1.75t-1.794-6.023h14.132q0.073-.957.074-1.694,0-5.12-2.294-7.625a8.241,8.241,0,0,0-6.4-2.5q-4.514,0-6.807,2.763t-2.294,7.993q0,6.226,2.423,9.117t7.825,2.892a14.074,14.074,0,0,0,6.807-1.621h0Zm-12.024-16.558a5.1,5.1,0,0,1,4.107-1.565q5.328,0,5.439,6.409H315.318A8.1,8.1,0,0,1,316.834,194.886Zm29.3-4.217H340.7v-5.747l-2.737.3-0.666,5.452h-3.182v2.725h3.071v13.593a6.229,6.229,0,0,0,1.461,4.475,5.634,5.634,0,0,0,4.273,1.529,6.991,6.991,0,0,0,3.071-.553l-0.222-2.652a4.848,4.848,0,0,1-1.85.295q-3.219,0-3.219-3.2V193.394h5.439v-2.725Zm10.4-7.331-3.515.221v29.064h3.515V183.338Zm24.085,29.285V198.441q0-4.383-1.832-6.3t-6.16-1.915a16.9,16.9,0,0,0-7.1,1.436l0.333,2.91a14.3,14.3,0,0,1,6.178-1.326,5.876,5.876,0,0,1,3.94,1.068,4.634,4.634,0,0,1,1.2,3.61V200.1a15.142,15.142,0,0,0-5.069-.848,8.765,8.765,0,0,0-5.9,1.75,6.165,6.165,0,0,0-2.016,4.918q0,3.573,1.813,5.3a6.881,6.881,0,0,0,4.957,1.731,8.881,8.881,0,0,0,3.83-.81,6.719,6.719,0,0,0,2.719-2.247l0.111,0.037,0.333,2.689h2.664Zm-5.069-3.684a6.06,6.06,0,0,1-3.626,1.142q-4.438,0-4.439-4.2,0-4.089,5.253-4.089a9.022,9.022,0,0,1,4.4.81V206.4A3.184,3.184,0,0,1,375.548,208.939Zm29.856-10.83a7.97,7.97,0,0,0-1.979-5.857,7.456,7.456,0,0,0-5.531-1.989,8.276,8.276,0,0,0-6.4,2.616h-0.111l-0.591-2.321-2.516.184v21.881h3.514v-16.65a4.993,4.993,0,0,1,2.2-1.805,7.059,7.059,0,0,1,2.941-.663q5,0,5,4.6v14.514H405.4V198.109Zm24.64-14.771-3.515.221v6.189L426.6,192.7l-0.074.036a8.221,8.221,0,0,0-6.215-2.468q-8.51,0-8.51,11.346,0,5.931,2.017,8.693t6.456,2.763q4.4,0,6.511-2.763l0.111,0.037,0.444,2.284h2.7V183.338Zm-5.42,26.006a6.357,6.357,0,0,1-3.385.811q-3.257,0-4.532-1.879t-1.277-6.52q0-4.494,1.314-6.372t4.532-1.879a7.116,7.116,0,0,1,3.144.681,4.914,4.914,0,0,1,2.109,1.824v11.456A5.258,5.258,0,0,1,424.624,209.344ZM439.7,208.5a2.007,2.007,0,0,0-2.294,2.247,2.4,2.4,0,0,0,.537,1.75,2.426,2.426,0,0,0,1.757.534A2.266,2.266,0,1,0,439.7,208.5Zm17.943-18.2q-4.993,0-7.307,2.689t-2.312,8.73q0,6.042,2.294,8.712t7.325,2.671q5,0,7.233-2.653t2.238-8.73q0-6.078-2.238-8.748T457.643,190.3Zm0,2.984q3.219,0,4.551,1.879t1.332,6.556q0,4.678-1.332,6.557t-4.551,1.879q-3.292,0-4.643-1.879t-1.35-6.557q0-4.677,1.35-6.556t4.643-1.879h0ZM477.4,201.5a8.253,8.253,0,0,1,1.776-5.544,5.6,5.6,0,0,1,4.44-2.081,7,7,0,0,1,2.182.3l0.222-3.536a7.423,7.423,0,0,0-2.182-.3,6.49,6.49,0,0,0-3.977,1.308,8.871,8.871,0,0,0-2.794,3.7h-0.074l-0.3-4.715-2.811.184v21.807H477.4V201.5Zm28.136,0.221a6.223,6.223,0,0,0,1.794-4.862,7.5,7.5,0,0,0-.592-3.021L509.4,192l-0.777-1.768L505,191.663a9.524,9.524,0,0,0-5.438-1.363q-7.806,0-7.806,6.557a5.593,5.593,0,0,0,2.626,5.194l-0.037.073a4.514,4.514,0,0,0-2.016,1.382,3.09,3.09,0,0,0-.721,1.971,3.355,3.355,0,0,0,1.849,3.057,5.1,5.1,0,0,0-2.145,4.126,4.985,4.985,0,0,0,2.09,4.236q2.09,1.547,6.382,1.547,9.4,0,9.4-6.594a4.459,4.459,0,0,0-1.591-3.7q-1.592-1.27-5.475-1.6l-5.365-.442q-1.925-.147-1.924-1.474,0-1.177,1.665-1.62a12.5,12.5,0,0,0,3.071.331Q503.741,203.34,505.535,201.719Zm-0.5,8.767a2.082,2.082,0,0,1,.925,1.842,2.771,2.771,0,0,1-1.369,2.486q-1.368.865-4.883,0.866-5.366,0-5.365-3.463a3.652,3.652,0,0,1,1.813-3.057l5.365,0.479A8.071,8.071,0,0,1,505.035,210.486Zm-2.09-16.557a3.772,3.772,0,0,1,1.018,3,3.829,3.829,0,0,1-.981,2.91,5.049,5.049,0,0,1-3.459.921,5.249,5.249,0,0,1-3.182-.829,3.53,3.53,0,0,1-1.11-3,3.837,3.837,0,0,1,1-2.947,4.923,4.923,0,0,1,3.367-.921A5.159,5.159,0,0,1,502.945,193.929Z"/>
  <path id="cruise" class="cls-1" d="M58.921,36.188q-29.1,0-43.268,15.331t-14.166,44q0,59.945,54.663,59.944a72.8,72.8,0,0,0,29.718-5.979l-3.7-29.129a52.678,52.678,0,0,1-20.479,3.679q-12.166,0-15.937-5.672T41.983,95.519q0-16.4,3.541-21.847t15.706-5.443a81.318,81.318,0,0,1,20.787,2.76L85.56,40.48a80.463,80.463,0,0,0-26.639-4.293h0Zm79.3,17.631h-42.5v99.5h35.57V122.5h6l12.318,30.816H191.19l-21.249-37.868a23.269,23.269,0,0,0,10.316-10.808,37.2,37.2,0,0,0,3.7-16.788q0-34.035-45.732-34.035h0Zm6.7,42.927q-1.772,1.689-6.7,1.686h-6.929V80.494h6.775q5.232,0,6.929,1.763t1.694,6.976Q146.69,95.061,144.919,96.745ZM249.241,53.818v62.858q0,5.212-1.925,7.2t-7.776,1.993q-5.7,0-7.93-2.146t-2.233-7.052V53.818H193.808v63.164q0,18.552,11.471,28.363t34.261,9.811q45.27,0,45.27-38.174V53.818H249.241Zm84.842,99.5v-99.5H297.59v99.5h36.493Zm84.611-47.833a28.024,28.024,0,0,0-10.932-9.659,82.154,82.154,0,0,0-12.78-4.906q-6.392-1.84-10.933-3.373t-4.542-3.526a2.659,2.659,0,0,1,1.77-2.606q1.769-.765,8.238-0.767,9.852,0,26.331,3.833l4-27.443a99.316,99.316,0,0,0-32.028-4.906q-21.4,0-31.873,9.429t-10.471,24.3q0,9.659,4.542,16.4a28.2,28.2,0,0,0,10.933,9.889,77.4,77.4,0,0,0,12.78,4.982q6.388,1.84,10.933,3.373t4.542,3.373a2.544,2.544,0,0,1-1.924,2.53,23.844,23.844,0,0,1-7.007.69q-14.629,0-30.488-7.206l-4.157,27.9q15.089,7.358,34.8,7.358,19.4,0,31.1-9.122t11.7-24.453Q423.237,112.077,418.694,105.484Zm49.195,10.272H501v-25.3H467.889V82.487h40.959l-0.616-28.669H432.319v99.5h77.607l0.615-28.209H467.889v-9.352Z"/>
  <path id="shetland" class="cls-1" d="M310,18c-8.456-.889-15.5-1.326-16.009-8.221-0.4-4.933,2.425-7.057,4.954-7.949,3.945-3.157,13.755-1.4,18.827,0a13.792,13.792,0,0,1,2.972,2.981A5.579,5.579,0,0,1,319,7c-0.994.434-.12,0.191-3.21,0.791-1.753-2.137-2.549-3.036-6.936-2.981-0.856.127-1.7-.206-2.973,0.994-0.249.962-.777,2.364,0,2.981,2.839,3.26,6.979,1.62,10.9,2.981,8.743,3.035,5.416,12.406-1.982,16.892-10.912.5-20.289,0.165-21.8-6.956,2.782-.632,3.582-1.765,4.954-0.994,3.385,1.992,7.486,3.434,10.9,2.981C309.921,22.18,310.384,21.859,310,18ZM324.708,3.817h9.908c0.024,3.895.021,5.4,0,8.943h7.927V3.817h9.909V28.658h-9.909V18.722h-7.927v9.937c-3.057.084-5.877,0.051-9.908,0V3.817Zm87.2,0V22.7H423.8c3.433-6.77,8.422-18.544,8.917-18.88s5.49-.021,7.927,0c3.348,7.7,6.585,15.081,9.909,21.861h0.991V3.817h5.945a143.236,143.236,0,0,0,12.881,11.924c-0.047-3.619-.158-8.8,0-11.924,2.367-.292,4.215.053,6.936,0V28.658h-5.945a90.519,90.519,0,0,0-12.881-11.924V28.658H441.63c-0.33-.994-0.652-3.232-0.991-3.975-0.127-.279-10.9,0-10.9,0s-0.533,3.771-.991,3.975H402V9.779h-6.936v18.88h-10.9V9.779H366.324v3.975h8.918v4.968h-8.918V22.7h12.881c0.012,2.881-.108,3.132,0,5.962H356.416c-0.235-9.363.254-16.639,0-24.842C389.1,4.095,395.6,3.988,411.9,3.817Zm69.361,0c12.4,0.3,18.41,1.039,24.772,2.981,3.075,4.732,3.922,5.886,3.963,12.918-2.558,3.6-2.442,4.952-6.936,6.956-4.375,2.339-12.219,1.725-21.8,1.987V3.817Zm9.909,5.962V22.7h4.954c3.219-5.193,3.084-7.728,0-12.918h-4.954Zm-52.516,10.93c-1.443-3.788-2.182-5.212-2.973-6.956a24.342,24.342,0,0,0-2.973,6.956C434.293,20.794,436.484,20.731,438.658,20.709Z"/>
</svg>
